<?xml version="1.0" encoding="UTF-8" standalone="no"?>
<!-- Created with Inkscape (http://www.inkscape.org/) -->

<svg
   xmlns:osb="http://www.openswatchbook.org/uri/2009/osb"
   xmlns:dc="http://purl.org/dc/elements/1.1/"
   xmlns:cc="http://creativecommons.org/ns#"
   xmlns:rdf="http://www.w3.org/1999/02/22-rdf-syntax-ns#"
   xmlns:svg="http://www.w3.org/2000/svg"
   xmlns="http://www.w3.org/2000/svg"
   xmlns:sodipodi="http://sodipodi.sourceforge.net/DTD/sodipodi-0.dtd"
   xmlns:inkscape="http://www.inkscape.org/namespaces/inkscape"
   width="650.09003"
   height="823.35999"
   id="svg3178"
   version="1.1"
   inkscape:version="0.48.2 r9819"
   sodipodi:docname="balloons.svg">
  <defs
     id="defs3180">
    <linearGradient
       id="linearGradient4362"
       osb:paint="solid">
      <stop
         style="stop-color:#ff6969;stop-opacity:1;"
         offset="0"
         id="stop4364" />
    </linearGradient>
  </defs>
  <sodipodi:namedview
     id="base"
     pagecolor="#ffffff"
     bordercolor="#666666"
     borderopacity="1.0"
     inkscape:pageopacity="0.0"
     inkscape:pageshadow="2"
     inkscape:zoom="0.35"
     inkscape:cx="-131.59562"
     inkscape:cy="563.74394"
     inkscape:document-units="px"
     inkscape:current-layer="layer2"
     showgrid="false"
     inkscape:window-width="1366"
     inkscape:window-height="665"
     inkscape:window-x="0"
     inkscape:window-y="0"
     inkscape:window-maximized="1" />
  <metadata
     id="metadata3183">
    <rdf:RDF>
      <cc:Work
         rdf:about="">
        <dc:format>image/svg+xml</dc:format>
        <dc:type
           rdf:resource="http://purl.org/dc/dcmitype/StillImage" />
        <dc:title />
      </cc:Work>
    </rdf:RDF>
  </metadata>
  <g
     inkscape:label="Layer 1"
     inkscape:groupmode="layer"
     id="layer1"
     transform="translate(0,-228.9974)">
    <path
       sodipodi:type="arc"
       style="fill:#a0a0a0;fill-opacity:0.58823529;stroke:#000000;stroke-width:1.58240557;stroke-linecap:butt;stroke-linejoin:miter;stroke-miterlimit:4;stroke-opacity:1;stroke-dasharray:none"
       id="path3958"
       sodipodi:cx="442.85715"
       sodipodi:cy="488.07648"
       sodipodi:rx="162.85715"
       sodipodi:ry="252.85715"
       d="M 423.9943,739.23182 C 334.65612,723.05702 270.67841,597.49868 281.09608,458.78942 291.51374,320.08015 372.38183,220.74634 461.72,236.92114 c 89.33817,16.17479 153.31588,141.73313 142.89822,280.4424 -8.64901,115.15986 -66.63257,206.4325 -140.6775,221.44218"
       transform="matrix(1.96505,0,0,1.3292971,-544.17859,-76.99263)"
       sodipodi:start="1.6868814"
       sodipodi:end="7.7241567"
       sodipodi:open="true" />
    <path
       style="fill:#a0a0a0;fill-opacity:0.58823529;stroke:#000000;stroke-width:2.61529064;stroke-linecap:butt;stroke-linejoin:miter;stroke-miterlimit:4;stroke-opacity:1;stroke-dasharray:none"
       d="m 290.21312,904.6479 c -11.9509,37.14285 -11.9509,40 -11.9509,40 l 98.59492,0 0,0 -11.9509,-40"
       id="path3962"
       inkscape:connector-curvature="0" />
    <path
       style="fill:none;stroke:#505050;stroke-width:1.89858842;stroke-linecap:butt;stroke-linejoin:miter;stroke-miterlimit:4;stroke-opacity:1;stroke-dasharray:none"
       d="m 327.42857,944.6479 c 0,108.7571 -2.85714,108.7571 -2.85714,108.7571"
       id="path4468"
       inkscape:connector-curvature="0" />
    <path
       style="fill:none;stroke:#505050;stroke-width:1.32799995;stroke-linecap:butt;stroke-linejoin:miter;stroke-miterlimit:4;stroke-opacity:1;stroke-dasharray:none"
       d="m 289.39095,905.22361 c 37.37564,26.30211 75.76144,-0.69216 75.76144,-0.69216"
       id="path3009"
       inkscape:connector-curvature="0" />
  </g>
  <g
     inkscape:groupmode="layer"
     id="layer2"
     inkscape:label="Inner balloons"
     transform="translate(0,-228.9974)">
    <path
       inkscape:transform-center-y="158.97782"
       transform="matrix(-0.8430642,0.53781294,-0.53781294,-0.8430642,702.40776,595.71055)"
       d="m 171.42857,382.36218 c 0,26.03628 -21.10658,47.14286 -47.14286,47.14286 -26.036278,0 -47.142853,-21.10658 -47.142853,-47.14286 0,-26.03628 21.106575,-47.14285 47.142853,-47.14285 26.03628,0 47.14286,21.10657 47.14286,47.14285 z"
       sodipodi:ry="47.142857"
       sodipodi:rx="47.142857"
       sodipodi:cy="382.36218"
       sodipodi:cx="124.28571"
       id="path4400"
       style="fill:#fcffe1;fill-opacity:1;stroke:#000000;stroke-width:2.02999997;stroke-linejoin:miter;stroke-miterlimit:4;stroke-opacity:1;stroke-dasharray:none"
       sodipodi:type="arc"
       inkscape:transform-center-x="-101.41616" />
    <path
       inkscape:transform-center-y="188.41068"
       transform="matrix(-0.9991477,-0.0412779,0.0412779,-0.9991477,438.32713,1076.2251)"
       d="m 171.42857,382.36218 c 0,26.03628 -21.10658,47.14286 -47.14286,47.14286 -26.036278,0 -47.142853,-21.10658 -47.142853,-47.14286 0,-26.03628 21.106575,-47.14285 47.142853,-47.14285 26.03628,0 47.14286,21.10657 47.14286,47.14285 z"
       sodipodi:ry="47.142857"
       sodipodi:rx="47.142857"
       sodipodi:cy="382.36218"
       sodipodi:cx="124.28571"
       id="path4402"
       style="fill:#fcffe1;fill-opacity:1;stroke:#000000;stroke-width:2.02999997;stroke-linejoin:miter;stroke-miterlimit:4;stroke-opacity:1;stroke-dasharray:none"
       sodipodi:type="arc"
       inkscape:transform-center-x="7.7838325" />
    <path
       inkscape:transform-center-y="-449.64632"
       transform="matrix(-0.90198408,-0.43176929,0.43176929,-0.90198408,457.96807,896.69178)"
       d="m 171.42857,382.36218 c 0,26.03628 -21.10658,47.14286 -47.14286,47.14286 -26.036278,0 -47.142853,-21.10658 -47.142853,-47.14286 0,-26.03628 21.106575,-47.14285 47.142853,-47.14285 26.03628,0 47.14286,21.10657 47.14286,47.14285 z"
       sodipodi:ry="47.142857"
       sodipodi:rx="47.142857"
       sodipodi:cy="382.36218"
       sodipodi:cx="124.28571"
       id="path4428"
       style="fill:#ffd92d;fill-opacity:1;stroke:#000000;stroke-width:2.02999997;stroke-linejoin:miter;stroke-miterlimit:4;stroke-opacity:1;stroke-dasharray:none"
       sodipodi:type="arc"
       inkscape:transform-center-x="563.61486" />
    <path
       inkscape:transform-center-y="-139.49015"
       transform="matrix(-0.99948022,0.03223807,-0.03223807,-0.99948022,251.16806,1093.3144)"
       d="m 171.42857,382.36218 c 0,26.03628 -21.10658,47.14286 -47.14286,47.14286 -26.036278,0 -47.142853,-21.10658 -47.142853,-47.14286 0,-26.03628 21.106575,-47.14285 47.142853,-47.14285 26.03628,0 47.14286,21.10657 47.14286,47.14285 z"
       sodipodi:ry="47.142857"
       sodipodi:rx="47.142857"
       sodipodi:cy="382.36218"
       sodipodi:cx="124.28571"
       id="path4430"
       style="fill:#ffd92d;fill-opacity:1;stroke:#000000;stroke-width:2.02999997;stroke-linejoin:miter;stroke-miterlimit:4;stroke-opacity:1;stroke-dasharray:none"
       sodipodi:type="arc"
       inkscape:transform-center-x="707.37967" />
    <path
       inkscape:transform-center-x="-170.32597"
       sodipodi:type="arc"
       style="fill:#ff5555;fill-opacity:1;stroke:#000000;stroke-width:2.02999997;stroke-linejoin:miter;stroke-miterlimit:4;stroke-opacity:1;stroke-dasharray:none"
       id="path4434"
       sodipodi:cx="124.28571"
       sodipodi:cy="382.36218"
       sodipodi:rx="47.142857"
       sodipodi:ry="47.142857"
       d="m 171.42857,382.36218 c 0,26.03628 -21.10658,47.14286 -47.14286,47.14286 -26.036278,0 -47.142853,-21.10658 -47.142853,-47.14286 0,-26.03628 21.106575,-47.14285 47.142853,-47.14285 26.03628,0 47.14286,21.10657 47.14286,47.14285 z"
       transform="matrix(-0.81454281,-0.58010345,0.58010345,-0.81454281,-5.390466,859.82351)"
       inkscape:transform-center-y="-118.37331" />
    <path
       inkscape:transform-center-y="71.190876"
       transform="matrix(0.89997474,0.43594206,-0.43594206,0.89997474,433.16834,429.54109)"
       d="m 171.42857,382.36218 c 0,26.03628 -21.10658,47.14286 -47.14286,47.14286 -26.036278,0 -47.142853,-21.10658 -47.142853,-47.14286 0,-26.03628 21.106575,-47.14285 47.142853,-47.14285 26.03628,0 47.14286,21.10657 47.14286,47.14285 z"
       sodipodi:ry="47.142857"
       sodipodi:rx="47.142857"
       sodipodi:cy="382.36218"
       sodipodi:cx="124.28571"
       id="path4442"
       style="fill:#7b69ff;fill-opacity:1;stroke:#000000;stroke-width:2.02999997;stroke-linejoin:miter;stroke-miterlimit:4;stroke-opacity:1;stroke-dasharray:none"
       sodipodi:type="arc"
       inkscape:transform-center-x="-255.47743" />
    <path
       inkscape:transform-center-y="193.19732"
       transform="matrix(0.54416593,0.83897762,-0.83897762,0.54416593,471.13809,364.07523)"
       d="m 171.42857,382.36218 c 0,26.03628 -21.10658,47.14286 -47.14286,47.14286 -26.036278,0 -47.142853,-21.10658 -47.142853,-47.14286 0,-26.03628 21.106575,-47.14285 47.142853,-47.14285 26.03628,0 47.14286,21.10657 47.14286,47.14285 z"
       sodipodi:ry="47.142857"
       sodipodi:rx="47.142857"
       sodipodi:cy="382.36218"
       sodipodi:cx="124.28571"
       id="path4444"
       style="fill:#7b69ff;fill-opacity:1;stroke:#000000;stroke-width:2.02999997;stroke-linejoin:miter;stroke-miterlimit:4;stroke-opacity:1;stroke-dasharray:none"
       sodipodi:type="arc"
       inkscape:transform-center-x="-181.6911" />
    <path
       sodipodi:type="arc"
       style="fill:#41f4ff;fill-opacity:1;stroke:#000000;stroke-width:2.02999997;stroke-linejoin:miter;stroke-miterlimit:4;stroke-opacity:1;stroke-dasharray:none"
       id="path4448"
       sodipodi:cx="124.28571"
       sodipodi:cy="382.36218"
       sodipodi:rx="47.142857"
       sodipodi:ry="47.142857"
       d="m 171.42857,382.36218 c 0,26.03628 -21.10658,47.14286 -47.14286,47.14286 -26.036278,0 -47.142853,-21.10658 -47.142853,-47.14286 0,-26.03628 21.106575,-47.14285 47.142853,-47.14285 26.03628,0 47.14286,21.10657 47.14286,47.14285 z"
       transform="matrix(-0.99913739,0.04152674,-0.04152674,-0.99913739,414.26338,843.8725)"
       inkscape:transform-center-y="-1.9322692"
       inkscape:transform-center-x="-143.31549" />
    <path
       sodipodi:type="arc"
       style="fill:#41f4ff;fill-opacity:1;stroke:#000000;stroke-width:2.02999997;stroke-linejoin:miter;stroke-miterlimit:4;stroke-opacity:1;stroke-dasharray:none"
       id="path4450"
       sodipodi:cx="124.28571"
       sodipodi:cy="382.36218"
       sodipodi:rx="47.142857"
       sodipodi:ry="47.142857"
       d="m 171.42857,382.36218 c 0,26.03628 -21.10658,47.14286 -47.14286,47.14286 -26.036278,0 -47.142853,-21.10658 -47.142853,-47.14286 0,-26.03628 21.106575,-47.14285 47.142853,-47.14285 26.03628,0 47.14286,21.10657 47.14286,47.14285 z"
       transform="matrix(-0.59560091,-0.8032805,0.8032805,-0.59560091,271.30348,707.13046)"
       inkscape:transform-center-y="117.48245"
       inkscape:transform-center-x="-82.103181" />
    <path
       inkscape:transform-center-x="-314.98289"
       inkscape:transform-center-y="-8.2862102"
       transform="matrix(0.88249657,0.47031884,-0.47031884,0.88249657,516.02444,241.90302)"
       d="m 171.42857,382.36218 c 0,26.03628 -21.10658,47.14286 -47.14286,47.14286 -26.036278,0 -47.142853,-21.10658 -47.142853,-47.14286 0,-26.03628 21.106575,-47.14285 47.142853,-47.14285 26.03628,0 47.14286,21.10657 47.14286,47.14285 z"
       sodipodi:ry="47.142857"
       sodipodi:rx="47.142857"
       sodipodi:cy="382.36218"
       sodipodi:cx="124.28571"
       id="path4454"
       style="fill:#ff69c1;fill-opacity:1;stroke:#000000;stroke-width:2.02999997;stroke-linejoin:miter;stroke-miterlimit:4;stroke-opacity:1;stroke-dasharray:none"
       sodipodi:type="arc" />
    <path
       sodipodi:type="arc"
       style="fill:#69ff7b;fill-opacity:1;stroke:#000000;stroke-width:2.02999997;stroke-linejoin:miter;stroke-miterlimit:4;stroke-opacity:1;stroke-dasharray:none"
       id="path4460"
       sodipodi:cx="124.28571"
       sodipodi:cy="382.36218"
       sodipodi:rx="47.142857"
       sodipodi:ry="47.142857"
       d="m 171.42857,382.36218 c 0,26.03628 -21.10658,47.14286 -47.14286,47.14286 -26.036278,0 -47.142853,-21.10658 -47.142853,-47.14286 0,-26.03628 21.106575,-47.14285 47.142853,-47.14285 26.03628,0 47.14286,21.10657 47.14286,47.14285 z"
       transform="matrix(-0.59951629,0.80036255,-0.80036255,-0.59951629,836.51178,887.64534)"
       inkscape:transform-center-y="-31.904128"
       inkscape:transform-center-x="-109.93811" />
    <path
       sodipodi:type="arc"
       style="fill:#69ff7b;fill-opacity:1;stroke:#000000;stroke-width:2.02999997;stroke-linejoin:miter;stroke-miterlimit:4;stroke-opacity:1;stroke-dasharray:none"
       id="path4462"
       sodipodi:cx="124.28571"
       sodipodi:cy="382.36218"
       sodipodi:rx="47.142857"
       sodipodi:ry="47.142857"
       d="m 171.42857,382.36218 c 0,26.03628 -21.10658,47.14286 -47.14286,47.14286 -26.036278,0 -47.142853,-21.10658 -47.142853,-47.14286 0,-26.03628 21.106575,-47.14285 47.142853,-47.14285 26.03628,0 47.14286,21.10657 47.14286,47.14285 z"
       transform="matrix(-0.96421242,-0.26513092,0.26513092,-0.96421242,199.2671,772.63619)"
       inkscape:transform-center-y="90.643668"
       inkscape:transform-center-x="-69.914184" />
    <path
       inkscape:transform-center-x="69.405135"
       inkscape:transform-center-y="91.03395"
       transform="matrix(0.00593849,-0.99998237,0.99998237,0.00593849,-33.036092,684.83756)"
       d="m 171.42857,382.36218 c 0,26.03628 -21.10658,47.14286 -47.14286,47.14286 -26.036278,0 -47.142853,-21.10658 -47.142853,-47.14286 0,-26.03628 21.106575,-47.14285 47.142853,-47.14285 26.03628,0 47.14286,21.10657 47.14286,47.14285 z"
       sodipodi:ry="47.142857"
       sodipodi:rx="47.142857"
       sodipodi:cy="382.36218"
       sodipodi:cx="124.28571"
       id="path4456"
       style="fill:#69ff7b;fill-opacity:1;stroke:#000000;stroke-width:2.02999997;stroke-linejoin:miter;stroke-miterlimit:4;stroke-opacity:1;stroke-dasharray:none"
       sodipodi:type="arc" />
    <path
       sodipodi:type="arc"
       style="fill:#ff69c1;fill-opacity:1;stroke:#000000;stroke-width:2.02999997;stroke-linejoin:miter;stroke-miterlimit:4;stroke-opacity:1;stroke-dasharray:none"
       id="path4452"
       sodipodi:cx="124.28571"
       sodipodi:cy="382.36218"
       sodipodi:rx="47.142857"
       sodipodi:ry="47.142857"
       d="m 171.42857,382.36218 c 0,26.03628 -21.10658,47.14286 -47.14286,47.14286 -26.036278,0 -47.142853,-21.10658 -47.142853,-47.14286 0,-26.03628 21.106575,-47.14285 47.142853,-47.14285 26.03628,0 47.14286,21.10657 47.14286,47.14285 z"
       transform="matrix(-0.94576445,0.3248532,-0.3248532,-0.94576445,458.22388,883.38405)"
       inkscape:transform-center-y="236.05765"
       inkscape:transform-center-x="208.70956" />
    <path
       inkscape:transform-center-y="-143.18264"
       transform="matrix(0.0731115,0.99732377,-0.99732377,0.0731115,919.53564,553.84279)"
       d="m 171.42857,382.36218 c 0,26.03628 -21.10658,47.14286 -47.14286,47.14286 -26.036278,0 -47.142853,-21.10658 -47.142853,-47.14286 0,-26.03628 21.106575,-47.14285 47.142853,-47.14285 26.03628,0 47.14286,21.10657 47.14286,47.14285 z"
       sodipodi:ry="47.142857"
       sodipodi:rx="47.142857"
       sodipodi:cy="382.36218"
       sodipodi:cx="124.28571"
       id="path4446"
       style="fill:#41f4ff;fill-opacity:1;stroke:#000000;stroke-width:2.02999997;stroke-linejoin:miter;stroke-miterlimit:4;stroke-opacity:1;stroke-dasharray:none"
       sodipodi:type="arc"
       inkscape:transform-center-x="6.4648093" />
    <path
       inkscape:transform-center-x="95.261062"
       sodipodi:type="arc"
       style="fill:#7b69ff;fill-opacity:1;stroke:#000000;stroke-width:2.02999997;stroke-linejoin:miter;stroke-miterlimit:4;stroke-opacity:1;stroke-dasharray:none"
       id="path4436"
       sodipodi:cx="124.28571"
       sodipodi:cy="382.36218"
       sodipodi:rx="47.142857"
       sodipodi:ry="47.142857"
       d="m 171.42857,382.36218 c 0,26.03628 -21.10658,47.14286 -47.14286,47.14286 -26.036278,0 -47.142853,-21.10658 -47.142853,-47.14286 0,-26.03628 21.106575,-47.14285 47.142853,-47.14285 26.03628,0 47.14286,21.10657 47.14286,47.14285 z"
       transform="matrix(-0.18697192,-0.98236526,0.98236526,-0.18697192,53.21471,644.72085)"
       inkscape:transform-center-y="-247.512" />
    <path
       inkscape:transform-center-x="-84.676341"
       sodipodi:type="arc"
       style="fill:#ff5555;fill-opacity:1;stroke:#000000;stroke-width:2.02999997;stroke-linejoin:miter;stroke-miterlimit:4;stroke-opacity:1;stroke-dasharray:none"
       id="path4438"
       sodipodi:cx="124.28571"
       sodipodi:cy="382.36218"
       sodipodi:rx="47.142857"
       sodipodi:ry="47.142857"
       d="m 171.42857,382.36218 c 0,26.03628 -21.10658,47.14286 -47.14286,47.14286 -26.036278,0 -47.142853,-21.10658 -47.142853,-47.14286 0,-26.03628 21.106575,-47.14285 47.142853,-47.14285 26.03628,0 47.14286,21.10657 47.14286,47.14285 z"
       transform="matrix(0.72130514,-0.69261742,0.69261742,0.72130514,-99.23085,619.99394)"
       inkscape:transform-center-y="189.34913" />
    <path
       inkscape:transform-center-y="-204.61968"
       transform="matrix(-0.87318052,0.48739694,-0.48739694,-0.87318052,868.63028,863.32295)"
       d="m 171.42857,382.36218 c 0,26.03628 -21.10658,47.14286 -47.14286,47.14286 -26.036278,0 -47.142853,-21.10658 -47.142853,-47.14286 0,-26.03628 21.106575,-47.14285 47.142853,-47.14285 26.03628,0 47.14286,21.10657 47.14286,47.14285 z"
       sodipodi:ry="47.142857"
       sodipodi:rx="47.142857"
       sodipodi:cy="382.36218"
       sodipodi:cx="124.28571"
       id="path4432"
       style="fill:#ff5555;fill-opacity:1;stroke:#000000;stroke-width:2.02999997;stroke-linejoin:miter;stroke-miterlimit:4;stroke-opacity:1;stroke-dasharray:none"
       sodipodi:type="arc"
       inkscape:transform-center-x="33.970043" />
    <path
       inkscape:transform-center-x="173.14257"
       sodipodi:type="arc"
       style="fill:#ffd92d;fill-opacity:1;stroke:#000000;stroke-width:2.02999997;stroke-linejoin:miter;stroke-miterlimit:4;stroke-opacity:1;stroke-dasharray:none"
       id="path4418"
       sodipodi:cx="124.28571"
       sodipodi:cy="382.36218"
       sodipodi:rx="47.142857"
       sodipodi:ry="47.142857"
       d="m 171.42857,382.36218 c 0,26.03628 -21.10658,47.14286 -47.14286,47.14286 -26.036278,0 -47.142853,-21.10658 -47.142853,-47.14286 0,-26.03628 21.106575,-47.14285 47.142853,-47.14285 26.03628,0 47.14286,21.10657 47.14286,47.14285 z"
       transform="matrix(-0.45239616,-0.89181709,0.89181709,-0.45239616,1.229548,595.70636)"
       inkscape:transform-center-y="-699.90369" />
    <path
       sodipodi:type="arc"
       style="fill:#fcffe1;fill-opacity:1;stroke:#000000;stroke-width:2.02999997;stroke-linejoin:miter;stroke-miterlimit:4;stroke-opacity:1;stroke-dasharray:none"
       id="path4130"
       sodipodi:cx="124.28571"
       sodipodi:cy="382.36218"
       sodipodi:rx="47.142857"
       sodipodi:ry="47.142857"
       d="m 171.42857,382.36218 c 0,26.03628 -21.10658,47.14286 -47.14286,47.14286 -26.036278,0 -47.142853,-21.10658 -47.142853,-47.14286 0,-26.03628 21.106575,-47.14285 47.142853,-47.14285 26.03628,0 47.14286,21.10657 47.14286,47.14285 z"
       transform="matrix(0.99942887,-0.03379262,0.03379262,0.99942887,-64.365214,199.66888)"
       inkscape:transform-center-y="-188.46373"
       inkscape:transform-center-x="6.3723202" />
  </g>
</svg>
