<?xml version="1.0" encoding="UTF-8" standalone="no"?>
<!-- Created with Inkscape (http://www.inkscape.org/) -->

<svg
   xmlns:dc="http://purl.org/dc/elements/1.1/"
   xmlns:cc="http://creativecommons.org/ns#"
   xmlns:rdf="http://www.w3.org/1999/02/22-rdf-syntax-ns#"
   xmlns:svg="http://www.w3.org/2000/svg"
   xmlns="http://www.w3.org/2000/svg"
   xmlns:sodipodi="http://sodipodi.sourceforge.net/DTD/sodipodi-0.dtd"
   xmlns:inkscape="http://www.inkscape.org/namespaces/inkscape"
   version="1.0"
   width="235.03999"
   height="342.76999"
   id="svg2"
   inkscape:version="0.48.2 r9819"
   sodipodi:docname="person.svg">
  <metadata
     id="metadata3157">
    <rdf:RDF>
      <cc:Work
         rdf:about="">
        <dc:format>image/svg+xml</dc:format>
        <dc:type
           rdf:resource="http://purl.org/dc/dcmitype/StillImage" />
        <dc:title />
      </cc:Work>
    </rdf:RDF>
  </metadata>
  <sodipodi:namedview
     pagecolor="#ffffff"
     bordercolor="#666666"
     borderopacity="1"
     objecttolerance="10"
     gridtolerance="10"
     guidetolerance="10"
     inkscape:pageopacity="0"
     inkscape:pageshadow="2"
     inkscape:window-width="1366"
     inkscape:window-height="665"
     id="namedview3155"
     showgrid="false"
     inkscape:zoom="0.64520846"
     inkscape:cx="226.52"
     inkscape:cy="182.88663"
     inkscape:window-x="0"
     inkscape:window-y="0"
     inkscape:window-maximized="1"
     inkscape:current-layer="svg2" />
  <defs
     id="defs23" />
  <path
     d="m 202.6794,342.31424 c -0.99472,-0.4452 -1.71411,-1.22624 -2.1837,-2.37084 -0.3851,-0.93883 -1.53632,-2.4371 -2.55815,-3.32949 -1.78759,-1.56103 -1.86131,-1.73206 -1.94314,-4.51267 -0.0469,-1.58961 -0.10647,-3.2153 -0.13249,-3.61282 -0.0261,-0.3974 -1.26585,-1.9524 -2.75501,-3.45552 -1.4892,-1.50318 -2.7041,-3.10717 -2.69993,-3.56445 0.004,-0.4573 0.40695,-2.35453 0.89482,-4.21603 0.48847,-1.86374 0.8942,-4.90524 0.90282,-6.76899 0.009,-1.86148 0.21391,-5.21212 0.45608,-7.44596 0.47984,-4.42624 0.10993,-8.1062 -1.45154,-14.44059 -0.53241,-2.15981 -0.96601,-5.78568 -1.07939,-9.0254 -0.12531,-3.58456 -0.47777,-6.33054 -1.04247,-8.12281 -1.14842,-3.64501 -2.18008,-8.43817 -2.52886,-11.74998 -0.31953,-3.03362 0.377,-10.48015 1.31132,-14.01935 0.51857,-1.96429 0.51248,-2.52892 -0.0413,-3.83581 -0.35706,-0.84282 -0.94403,-2.64932 -1.30423,-4.01438 -0.80069,-3.03439 -1.99036,-18.16673 -1.991,-25.32483 -5.8e-4,-6.18324 -0.74584,-10.84254 -2.90665,-18.17262 -2.15015,-7.29364 -2.32668,-7.38674 -2.97365,-1.56952 -0.23097,2.07668 -0.62569,4.62816 -0.87713,5.66993 -0.25144,1.04165 -0.45806,2.36164 -0.45914,2.93322 -0.001,0.57159 -0.0714,6.52215 -0.15652,13.22344 -0.13783,10.8617 -0.26434,12.6049 -1.1662,16.05931 l -1.01176,3.87498 1.15128,3.7966 c 1.94447,6.41208 2.60227,11.71626 2.03743,16.42919 -0.2679,2.23535 -0.75911,5.28268 -1.09162,6.77192 -0.33241,1.48915 -0.73275,4.12912 -0.88947,5.86649 -0.15674,1.73738 -0.46565,4.07272 -0.68632,5.18957 -0.22068,1.11685 -0.73913,3.75681 -1.15219,5.86651 -0.66902,3.41742 -0.99143,13.97273 -0.45332,14.84344 0.0968,0.15651 0.39827,3.53137 0.67004,7.4996 0.27173,3.96831 0.72099,8.96247 0.9984,11.09812 0.77466,5.9642 -0.40559,7.57244 -6.38784,8.70443 -5.93767,1.12354 -7.22753,2.19785 -10.89341,9.07341 -0.9119,1.71026 -3.47719,3.02087 -6.43273,3.2864 -1.29233,0.11615 -2.68693,0.55376 -3.19556,1.0028 -1.27169,1.12255 -2.70034,1.4703 -4.67174,1.13728 -2.1403,-0.36158 -4.91671,-2.77934 -5.49098,-4.78157 -0.5758,-2.00759 0.14308,-6.34257 1.38482,-8.35175 1.23185,-1.99314 3.5864,-3.79587 4.98466,-3.81649 0.59713,-0.009 1.55668,-0.27736 2.1325,-0.59677 1.77254,-0.98349 9.9266,-9.36242 10.78143,-11.07889 1.10099,-2.21053 0.98444,-8.59753 -0.2807,-15.38448 -1.21111,-6.49681 -2.62532,-13.77553 -3.4194,-17.59949 -1.04243,-5.01907 -1.66358,-9.37398 -1.52525,-10.69332 0.0731,-0.69619 -0.0127,-1.50143 -0.1906,-1.78922 -0.78936,-1.27711 -0.87988,-11.25664 -0.14721,-16.21457 0.6462,-4.37214 0.6592,-5.23388 0.10299,-6.81046 -0.91242,-2.5859 -2.53229,-10.79043 -2.53229,-12.82531 0,-0.94952 -0.29057,-2.59657 -0.64569,-3.66009 -2.10428,-6.30181 -2.42517,-8.82236 -3.00385,-23.59453 -0.24309,-6.20494 -0.62807,-12.70327 -0.85537,-14.44064 -0.22735,-1.73739 -0.55352,-5.90568 -0.72486,-9.26294 -0.33323,-6.5311 0.12603,-9.60239 2.18976,-14.64249 0.66456,-1.6228 1.02551,-3.87323 1.26851,-7.90904 0.64638,-10.73524 1.15687,-13.91817 3.11233,-19.40456 2.10634,-5.90994 2.3892,-9.48683 1.12386,-14.21498 -1.12993,-4.22239 -2.01165,-9.50025 -2.43944,-14.60134 -0.21556,-2.5704 -0.6159,-4.897388 -0.88963,-5.171138 -0.36272,-0.362729 -1.0783,0.10909 -2.63895,1.740209 -1.69662,1.773209 -3.00541,2.589209 -6.30352,3.930099 -2.28925,0.93074 -4.40683,1.69229 -4.7058,1.69229 -0.29896,0 -2.58671,0.8378 -5.08383,1.86183 -4.3501,1.78374 -4.6919,1.85157 -8.15366,1.61807 -4.17839,-0.28201 -7.93911,-1.0427 -8.9697,-1.81441 -0.45665,-0.34188 -1.13116,-2.62714 -1.85469,-6.28362 -1.8898,-9.549649 -1.44757,-21.407887 1.3831,-37.086063 0.8476,-4.694807 1.54109,-9.060814 1.54095,-9.702318 -1.7e-4,-0.64148 -0.4275,-2.283208 -0.94968,-3.648261 -1.16762,-3.052608 -2.20499,-9.179012 -2.2073,-13.035681 -9.3e-4,-1.585189 -0.22141,-4.631213 -0.48995,-6.769017 -0.42833,-3.410101 -0.38683,-4.191391 0.33847,-6.368931 0.92133,-2.76628 2.20348,-3.4392 3.79989,-1.99455 1.0296,0.93179 0.88793,1.06259 2.34241,-2.16286 0.89381,-1.98219 1.44698,-2.64941 2.39351,-2.88703 0.92375,-0.23179 1.39542,-0.09517 1.88948,0.5473 0.36222,0.47097 0.74703,0.65317 0.85529,0.40504 1.2874,-2.95229 1.80914,-3.61017 2.86276,-3.61017 0.93816,0 1.14729,0.24241 1.26536,1.46664 0.13749,1.42567 1.06145,1.98966 1.66369,1.01537 0.58732,-0.95051 1.65388,-0.38331 2.33366,1.24098 0.59051,1.41107 0.6557,2.82421 0.39241,8.50558 -0.30138,6.501289 0.0967,10.56049 1.03545,10.56049 0.18823,0 1.13982,-0.816711 2.11459,-1.814929 2.91141,-2.981627 7.97979,-3.60862 8.6179,-1.066082 0.24242,0.966009 -0.10668,1.51539 -2.27917,3.586249 -1.7608,1.678422 -2.98989,3.381453 -3.91854,5.429589 -0.74427,1.64135 -2.28235,3.977721 -3.41808,5.191851 -2.5027,2.67553 -3.52216,5.479897 -4.49518,12.364963 -1.24487,8.80814 -0.30415,19.189792 1.73738,19.174572 0.32296,-0.002 1.46505,-0.702319 2.53812,-1.555408 1.07304,-0.852979 2.59605,-1.764219 3.38456,-2.024971 1.07732,-0.356242 1.88197,-1.226446 3.23863,-3.502716 2.44475,-4.101983 7.45728,-7.782361 12.44056,-9.134271 1.87841,-0.509551 3.96796,-0.926531 4.64353,-0.926531 1.22402,0 2.9552,-0.804229 6.38189,-2.964544 0.99274,-0.62593 3.2764,-1.84525 5.07466,-2.709649 1.7983,-0.864282 3.56342,-2.0227 3.92245,-2.574158 0.35904,-0.551458 0.78775,-2.525665 0.95268,-4.387126 0.24815,-2.801113 0.13796,-3.842937 -0.63937,-6.044005 -0.51654,-1.462651 -1.22692,-2.985733 -1.57861,-3.384519 -0.72515,-0.822115 -2.98851,-6.32712 -3.00302,-7.303888 -0.008,-0.552378 -0.96994,-3.397356 -2.78156,-8.228787 -0.37799,-1.00801 -0.27898,-1.86986 0.48064,-4.18375 0.52614,-1.60279 0.95733,-3.67136 0.95825,-4.59692 0.002,-2.14739 1.31459,-4.30407 3.05883,-5.02651 0.8085,-0.33491 1.92459,-1.46888 2.74572,-2.78986 1.43478,-2.30812 2.75845,-3.11738 5.0984,-3.11738 0.77457,0 2.4768,-0.68261 3.91925,-1.5715 5.33117,-3.28558 10.32608,-2.83497 13.91754,1.25559 0.74151,0.84439 1.85551,1.6627 2.47569,1.81832 1.87911,0.47166 3.41599,2.0026 4.27271,4.25607 0.44712,1.17631 1.57948,3.53663 2.51632,5.24525 2.49069,4.54245 2.85899,6.25529 1.89385,8.80671 -0.432,1.14185 -1.08777,2.544 -1.45731,3.11596 -0.3696,0.57194 -0.64825,1.688872 -0.61933,2.481986 0.0795,2.172704 -0.73052,4.213407 -2.0036,5.047557 -2.06122,1.350564 -4.68217,8.54534 -4.68217,12.852969 0,2.411668 2.0304,4.953098 6.78794,8.496684 2.09929,1.563645 4.63904,3.647224 5.64393,4.630293 1.84298,1.802964 2.60077,2.064559 8.51436,2.939247 1.36565,0.201965 2.41214,0.880658 4.60511,2.986442 2.49431,2.395127 3.09011,3.322696 4.92153,7.661379 l 2.08355,4.936416 -0.12181,5.954944 c -0.0735,3.590026 0.069,6.313333 0.35881,6.857473 1.19772,2.249066 1.70173,7.408621 1.63129,16.696911 -0.0671,8.83572 0.008,9.79704 1.1051,14.215 1.56924,6.31752 1.63892,15.72952 0.16044,21.66088 -0.52593,2.10968 -1.34361,5.56189 -1.81695,7.67157 -0.47336,2.10967 -1.09412,4.44503 -1.37936,5.18957 -0.74939,1.95598 -3.64808,16.55153 -4.07784,20.5328 -0.87266,8.08484 -1.7076,12.13423 -2.81115,13.63388 -0.60044,0.816 -1.52548,2.34352 -2.05569,3.3945 -0.53019,1.05098 -1.86447,3.0163 -2.96492,4.36742 -2.20924,2.71227 -2.3009,2.92351 -2.95578,6.8085 -0.87618,5.19767 -2.25638,10.6339 -3.23835,12.75481 -0.80457,1.73779 -1.01165,3.10648 -1.10894,7.32665 -0.0657,2.85421 -0.35128,6.88066 -0.63455,8.94744 -0.32927,2.4022 -0.35938,3.94876 -0.0835,4.28707 0.23738,0.29102 0.9727,2.74075 1.63394,5.44382 1.51251,6.18214 2.32049,16.91107 1.66895,22.16153 -1.00093,8.06599 -2.79737,17.44121 -5.14496,26.85043 -0.84399,3.38266 -1.43952,6.99581 -1.48761,9.02542 -0.0441,1.86149 -0.23094,4.26239 -0.41504,5.33544 -0.28784,1.67656 -0.14324,2.31131 1.02787,4.51272 0.74951,1.40896 1.89575,3.98318 2.54714,5.72057 0.65137,1.73747 1.75927,4.37734 2.4621,5.86658 2.90598,6.15805 3.19496,6.87579 3.19088,7.9268 -0.005,1.33464 -2.18457,5.21818 -3.73987,6.66425 -1.94221,1.80577 -6.54164,2.67957 -8.79556,1.67093 z m 12.43615,-175.09443 c 0.90971,-2.7314 1.53482,-16.3529 0.97156,-21.1701 -0.26455,-2.26336 -0.43482,-7.36435 -0.37821,-11.33556 0.0959,-6.72761 0.0267,-7.42066 -1.01443,-10.15775 -1.16366,-3.05908 -2.4988,-5.41098 -3.07174,-5.41098 -0.47137,0 -2.27333,6.26688 -2.27154,7.90013 7.2e-4,0.74628 0.19997,2.04925 0.44264,2.89548 0.82548,2.87834 1.53009,12.89814 1.01145,14.38551 -0.3802,1.09079 -0.29378,1.95604 0.4224,4.228 0.63986,2.02989 1.02056,5.07676 1.31556,10.52814 0.46384,8.57079 0.71524,10.27925 1.47595,10.0301 0.28759,-0.0941 0.78102,-0.94603 1.09636,-1.89297 z"
     style="fill:#000000;fill-opacity:1"
     id="path2084"
     inkscape:connector-curvature="0" />
</svg>
